<svg width="100" height="100" viewBox="0 0 100 100" fill="none" xmlns="http://www.w3.org/2000/svg">
<path d="M72.4702 70.1178L72.5209 70.0827L72.4702 70.1178Z" fill="url(#paint0_linear)"/>
<path d="M29.1395 87.1868V75.8168L28.9619 75.9264L28.9808 95.4119L33.8671 94.6559L36.5237 92.9739C36.5237 92.9739 29.1395 94.826 29.1395 87.1868Z" fill="url(#paint1_linear)"/>
<path d="M62.0737 54.8647L58.0604 57.4237L62.0737 54.8647L64.7039 53.1826L62.0737 54.8647Z" fill="url(#paint2_linear)"/>
<path d="M64.602 53.1636L85.6966 39.7714C84.4132 37.9985 82.8067 36.4839 80.9615 35.3073L73.5394 30.5672L32.7862 4.52355C31.2928 3.56863 29.5658 3.04246 27.7937 3.00246C26.0217 2.96247 24.2727 3.41019 22.7377 4.29675L15.225 8.64745C13.9409 9.38941 12.8746 10.4562 12.133 11.7406C11.3914 13.0251 11.0007 14.4821 11 15.9654L11 82.39C11 83.6566 11.3349 84.9006 11.9707 85.9959C12.6065 87.0913 13.5206 87.9989 14.6203 88.6269L26.3807 95.3325C27.4053 95.917 28.5699 96.2111 29.7491 96.1831C30.9283 96.1551 32.0776 95.8062 33.0734 95.1737L68.9743 72.3505L50.2114 62.4244L29.1394 75.8167V60.1716C29.1398 59.8285 29.2261 59.491 29.3904 59.1899C29.5548 58.8888 29.792 58.6337 30.0804 58.448L41.0812 51.4211C41.32 51.2687 41.5165 51.0586 41.6526 50.8102C41.7888 50.5618 41.8602 50.2831 41.8602 49.9998C41.8602 49.7166 41.7888 49.4378 41.6526 49.1894C41.5165 48.941 41.32 48.7309 41.0812 48.5786L30.0728 41.5668C29.7837 41.3788 29.5466 41.1209 29.3835 40.817C29.2203 40.5131 29.1364 40.173 29.1394 39.8281V29.7054C29.1389 29.1861 29.2755 28.6759 29.5353 28.2264C29.7952 27.7768 30.1692 27.4039 30.6195 27.1454C31.0697 26.8868 31.5802 26.7518 32.0994 26.754C32.6186 26.7561 33.128 26.8954 33.576 27.1577L37.7556 29.6034L64.704 46.8171C65.3169 47.2093 65.8018 47.7721 66.0992 48.4362C66.3966 49.1004 66.4936 49.837 66.3781 50.5555C66.2874 51.0925 66.0818 51.6037 65.7752 52.0538C65.4686 52.504 65.0684 52.8826 64.602 53.1636Z" fill="url(#paint3_linear)"/>
<path d="M85.6965 39.7715L64.7039 53.1826L62.0586 54.8609L72.4623 70.1091L72.5114 70.0751L80.9538 64.6849C89.759 59.0718 91.3311 47.5279 85.6965 39.7715Z" fill="url(#paint4_linear)"/>
<path d="M85.6964 39.7714C84.413 37.9985 82.8065 36.484 80.9612 35.3073L73.5392 30.5673C73.5392 30.5673 84.0374 38.7697 72.2619 47.6223C68.7511 50.1927 65.418 52.6194 65.0401 52.9067L58.0753 57.4426L29.1392 75.8168C29.1392 96.1868 37.3359 92.4485 37.3359 92.4485L72.4811 70.0978L72.5302 70.0637L80.9726 64.6736C89.7589 59.0717 91.3309 47.5278 85.6964 39.7714Z" fill="url(#paint5_linear)"/>
<path d="M62.0739 54.8647L64.7041 53.1826L62.0739 54.8647Z" fill="url(#paint6_linear)"/>
<path d="M62.0739 54.8647L64.7041 53.1826L62.0739 54.8647Z" fill="url(#paint7_linear)"/>
<defs>
<linearGradient id="paint0_linear" x1="64.1481" y1="53.7975" x2="42.5121" y2="11.5945" gradientUnits="userSpaceOnUse">
<stop stop-color="#FFC224"/>
<stop offset="1" stop-color="#FD9119"/>
</linearGradient>
<linearGradient id="paint1_linear" x1="91.0592" y1="49.2741" x2="34.5063" y2="83.4103" gradientUnits="userSpaceOnUse">
<stop stop-color="#FDCB26"/>
<stop offset="1" stop-color="#FD9219"/>
</linearGradient>
<linearGradient id="paint2_linear" x1="1429.42" y1="420.927" x2="718.937" y2="1206.99" gradientUnits="userSpaceOnUse">
<stop stop-color="#FFC224"/>
<stop offset="1" stop-color="#FD9119"/>
</linearGradient>
<linearGradient id="paint3_linear" x1="14.0875" y1="55.836" x2="68.2718" y2="31.9827" gradientUnits="userSpaceOnUse">
<stop stop-color="#FFC224"/>
<stop offset="1" stop-color="#FF7814"/>
</linearGradient>
<linearGradient id="paint4_linear" x1="5720.09" y1="3660.88" x2="1447.68" y2="5951.51" gradientUnits="userSpaceOnUse">
<stop stop-color="#FDCB26"/>
<stop offset="1" stop-color="#FD9219"/>
</linearGradient>
<linearGradient id="paint5_linear" x1="11608" y1="6499.21" x2="3324.31" y2="12704.9" gradientUnits="userSpaceOnUse">
<stop stop-color="#FFC224"/>
<stop offset="1" stop-color="#FF7814"/>
</linearGradient>
<linearGradient id="paint6_linear" x1="582.463" y1="220.043" x2="298.52" y2="488.11" gradientUnits="userSpaceOnUse">
<stop stop-color="#FDCB26"/>
<stop offset="1" stop-color="#FD9219"/>
</linearGradient>
<linearGradient id="paint7_linear" x1="605.451" y1="199.438" x2="323.613" y2="510.701" gradientUnits="userSpaceOnUse">
<stop stop-color="#FFC224"/>
<stop offset="1" stop-color="#FD9119"/>
</linearGradient>
</defs>
</svg>
